<mxfile host="Electron" modified="2024-07-02T16:28:00.131Z" agent="Mozilla/5.0 (Macintosh; Intel Mac OS X 10_15_7) AppleWebKit/537.36 (KHTML, like Gecko) draw.io/23.1.5 Chrome/120.0.6099.109 Electron/28.1.0 Safari/537.36" etag="z1dOl4zM4EwmnaEZtYFM" version="23.1.5" type="device">
  <diagram id="PHb2eGyyGbvwx4oAQFKI" name="microservises">
    <mxGraphModel dx="1038" dy="653" grid="1" gridSize="10" guides="1" tooltips="1" connect="1" arrows="1" fold="1" page="1" pageScale="1" pageWidth="1920" pageHeight="1200" math="0" shadow="0">
      <root>
        <mxCell id="0" />
        <mxCell id="1" parent="0" />
        <mxCell id="B0PGhKgbakV6-kQyAMOY-3" style="edgeStyle=orthogonalEdgeStyle;rounded=0;orthogonalLoop=1;jettySize=auto;html=1;exitX=0.5;exitY=1;exitDx=0;exitDy=0;" parent="1" edge="1">
          <mxGeometry relative="1" as="geometry">
            <mxPoint x="580" y="499.9999999999998" as="sourcePoint" />
          </mxGeometry>
        </mxCell>
        <mxCell id="B0PGhKgbakV6-kQyAMOY-6" style="edgeStyle=orthogonalEdgeStyle;rounded=0;orthogonalLoop=1;jettySize=auto;html=1;exitX=0.5;exitY=1;exitDx=0;exitDy=0;entryX=0.5;entryY=0;entryDx=0;entryDy=0;entryPerimeter=0;" parent="1" edge="1">
          <mxGeometry relative="1" as="geometry">
            <mxPoint x="460" y="200" as="targetPoint" />
          </mxGeometry>
        </mxCell>
        <mxCell id="B0PGhKgbakV6-kQyAMOY-10" style="edgeStyle=orthogonalEdgeStyle;rounded=0;orthogonalLoop=1;jettySize=auto;html=1;exitX=0.5;exitY=1;exitDx=0;exitDy=0;entryX=0.5;entryY=0;entryDx=0;entryDy=0;entryPerimeter=0;" parent="1" edge="1">
          <mxGeometry relative="1" as="geometry">
            <mxPoint x="660" y="180" as="sourcePoint" />
          </mxGeometry>
        </mxCell>
        <mxCell id="B0PGhKgbakV6-kQyAMOY-11" value="&lt;h1&gt;Пользователи:&lt;/h1&gt;&lt;p&gt;- Пользователь - не аутентифицированный в системе человек&lt;br&gt;- Заказчик - пользователь с ролью CUSTOMER&lt;br&gt;- Администратор - пользователь с ролью ADMIN&lt;br&gt;- Повар - пользователь с ролью COOK&lt;/p&gt;&lt;p&gt;&lt;br&gt;&lt;/p&gt;" style="text;html=1;spacing=5;spacingTop=-20;whiteSpace=wrap;overflow=hidden;rounded=0;" parent="1" vertex="1">
          <mxGeometry x="40" y="40" width="400" height="120" as="geometry" />
        </mxCell>
        <mxCell id="B0PGhKgbakV6-kQyAMOY-14" value="&lt;h1&gt;Микросервис карт&lt;/h1&gt;&lt;div&gt;&lt;div&gt;Микросервис карт отвечает за управление картами в системе. К нему имеет доступ только заказчик и администратор. У заказчика есть права на получение или удаление своих карт по их id или номеру, ко всем остальным возможностям сервиса имеет доступ только администратор. Для создания карты необходимо указать id пользователя, к которому будет привязана эта карта, номер - строка, состоящая из 16 цифр, тип карты и скидку (число от 0 до 1), которую предлагает данная карта. Для обновления карты можно не указывать некоторые поля, в таком случае они останутся нетронутыми.&lt;/div&gt;&lt;/div&gt;&lt;div&gt;&lt;br&gt;&lt;/div&gt;" style="text;html=1;spacing=5;spacingTop=-20;whiteSpace=wrap;overflow=hidden;rounded=0;" parent="1" vertex="1">
          <mxGeometry x="40" y="160" width="560" height="160" as="geometry" />
        </mxCell>
        <mxCell id="B0PGhKgbakV6-kQyAMOY-17" style="edgeStyle=orthogonalEdgeStyle;rounded=0;orthogonalLoop=1;jettySize=auto;html=1;exitX=0.5;exitY=1;exitDx=0;exitDy=0;" parent="1" edge="1">
          <mxGeometry relative="1" as="geometry">
            <mxPoint x="580.0588235294117" y="799.9999999999998" as="targetPoint" />
          </mxGeometry>
        </mxCell>
        <mxCell id="B0PGhKgbakV6-kQyAMOY-23" value="&lt;h1&gt;Микросервис заказов&lt;/h1&gt;&lt;div&gt;Микросервис заказов отвечает за управление заказами в системе. К нему имеет доступ любой авторизированный пользователь, но у каждого есть ограничения. Заказчик имеет право на создание, получение, и оплату своих заказов. Администратор может выполнять любую CRUD операцию. Повар имеет право получить заказы и изменить их статус. При некорректном состоянии заказа или нехватки средств для оплаты будет возвращено соответствующее исключение.&lt;br&gt;&lt;/div&gt;" style="text;html=1;spacing=5;spacingTop=-20;whiteSpace=wrap;overflow=hidden;rounded=0;" parent="1" vertex="1">
          <mxGeometry x="600" y="160" width="560" height="160" as="geometry" />
        </mxCell>
        <mxCell id="B0PGhKgbakV6-kQyAMOY-26" style="edgeStyle=orthogonalEdgeStyle;rounded=0;orthogonalLoop=1;jettySize=auto;html=1;exitX=0.5;exitY=1;exitDx=0;exitDy=0;" parent="1" edge="1">
          <mxGeometry relative="1" as="geometry">
            <mxPoint x="580.0588235294117" y="1000" as="targetPoint" />
          </mxGeometry>
        </mxCell>
        <mxCell id="B0PGhKgbakV6-kQyAMOY-37" value="&lt;h1&gt;Микросервис ресторанов&lt;/h1&gt;&lt;div&gt;Микросервис ресторанов предоставляет api для управления данными о ресторанах. У пользователей есть полный доступ к получению любого ресторана, но для изменения данных нужно обладать ADMIN ролью. В запросах на создание/обновление ресторана проверяется валидность введенных данных (название не может быть пустым, номер телефона должен быть введён корректно а все другие поля не могут быть null).&lt;/div&gt;" style="text;html=1;spacing=5;spacingTop=-20;whiteSpace=wrap;overflow=hidden;rounded=0;" parent="1" vertex="1">
          <mxGeometry x="600" y="40" width="560" height="160" as="geometry" />
        </mxCell>
        <mxCell id="B0PGhKgbakV6-kQyAMOY-38" value="&lt;h1&gt;Микросервис продуктов&lt;/h1&gt;&lt;div&gt;Микросервис продуктов предоставляет api для управления данными о продуктах. У пользователей есть полный доступ к получению любого продукта, но для изменения данных нужно обладать ADMIN ролью. В запросах на создание/обновление продуктов проверяется валидность введенных данных (название не может быть пустым, а цена и вес не может быть меньше 0). В случае обновления некоторые поля могут быть не указаны, в таком случае они останутся нетронутыми.&lt;/div&gt;" style="text;html=1;spacing=5;spacingTop=-20;whiteSpace=wrap;overflow=hidden;rounded=0;" parent="1" vertex="1">
          <mxGeometry x="40" y="320" width="560" height="160" as="geometry" />
        </mxCell>
        <mxCell id="w0uS0H19VgwwP3KNhR0U-1" style="edgeStyle=orthogonalEdgeStyle;rounded=0;orthogonalLoop=1;jettySize=auto;html=1;exitX=1;exitY=0.5;exitDx=0;exitDy=0;" parent="1" source="hqSXu8GDfhMuMuZGrUjH-1" target="hqSXu8GDfhMuMuZGrUjH-4" edge="1">
          <mxGeometry relative="1" as="geometry" />
        </mxCell>
        <mxCell id="w0uS0H19VgwwP3KNhR0U-2" style="edgeStyle=orthogonalEdgeStyle;rounded=0;orthogonalLoop=1;jettySize=auto;html=1;exitX=1;exitY=0.5;exitDx=0;exitDy=0;" parent="1" source="hqSXu8GDfhMuMuZGrUjH-1" target="hqSXu8GDfhMuMuZGrUjH-7" edge="1">
          <mxGeometry relative="1" as="geometry" />
        </mxCell>
        <mxCell id="w0uS0H19VgwwP3KNhR0U-3" style="edgeStyle=orthogonalEdgeStyle;rounded=0;orthogonalLoop=1;jettySize=auto;html=1;exitX=1;exitY=0.5;exitDx=0;exitDy=0;" parent="1" source="hqSXu8GDfhMuMuZGrUjH-1" target="hqSXu8GDfhMuMuZGrUjH-9" edge="1">
          <mxGeometry relative="1" as="geometry" />
        </mxCell>
        <mxCell id="w0uS0H19VgwwP3KNhR0U-4" style="edgeStyle=orthogonalEdgeStyle;rounded=0;orthogonalLoop=1;jettySize=auto;html=1;exitX=1;exitY=0.5;exitDx=0;exitDy=0;" parent="1" source="hqSXu8GDfhMuMuZGrUjH-1" target="hqSXu8GDfhMuMuZGrUjH-11" edge="1">
          <mxGeometry relative="1" as="geometry" />
        </mxCell>
        <mxCell id="hqSXu8GDfhMuMuZGrUjH-1" value="user microservice" style="rounded=1;whiteSpace=wrap;html=1;" parent="1" vertex="1">
          <mxGeometry x="640" y="400" width="160" height="80" as="geometry" />
        </mxCell>
        <mxCell id="N9-u3PIbGsMnkZM41l7X-172" style="edgeStyle=orthogonalEdgeStyle;rounded=0;orthogonalLoop=1;jettySize=auto;html=1;exitX=0.5;exitY=1;exitDx=0;exitDy=0;exitPerimeter=0;entryX=0.5;entryY=0;entryDx=0;entryDy=0;" parent="1" source="hqSXu8GDfhMuMuZGrUjH-2" target="N9-u3PIbGsMnkZM41l7X-1" edge="1">
          <mxGeometry relative="1" as="geometry" />
        </mxCell>
        <mxCell id="hqSXu8GDfhMuMuZGrUjH-2" value="PostgreSQL user db" style="shape=cylinder3;whiteSpace=wrap;html=1;boundedLbl=1;backgroundOutline=1;size=15;fillColor=#dae8fc;strokeColor=#6c8ebf;" parent="1" vertex="1">
          <mxGeometry x="160" y="640" width="160" height="80" as="geometry" />
        </mxCell>
        <mxCell id="hqSXu8GDfhMuMuZGrUjH-3" style="edgeStyle=orthogonalEdgeStyle;rounded=0;orthogonalLoop=1;jettySize=auto;html=1;exitX=0.5;exitY=1;exitDx=0;exitDy=0;entryX=0.5;entryY=0;entryDx=0;entryDy=0;entryPerimeter=0;" parent="1" source="hqSXu8GDfhMuMuZGrUjH-1" target="hqSXu8GDfhMuMuZGrUjH-2" edge="1">
          <mxGeometry relative="1" as="geometry" />
        </mxCell>
        <mxCell id="hqSXu8GDfhMuMuZGrUjH-4" value="card microservice" style="rounded=1;whiteSpace=wrap;html=1;" parent="1" vertex="1">
          <mxGeometry x="840" y="520" width="160" height="80" as="geometry" />
        </mxCell>
        <mxCell id="N9-u3PIbGsMnkZM41l7X-173" style="edgeStyle=orthogonalEdgeStyle;rounded=0;orthogonalLoop=1;jettySize=auto;html=1;exitX=0.5;exitY=1;exitDx=0;exitDy=0;exitPerimeter=0;entryX=0.5;entryY=0;entryDx=0;entryDy=0;" parent="1" source="hqSXu8GDfhMuMuZGrUjH-5" target="N9-u3PIbGsMnkZM41l7X-34" edge="1">
          <mxGeometry relative="1" as="geometry" />
        </mxCell>
        <mxCell id="hqSXu8GDfhMuMuZGrUjH-5" value="PostgreSQL card db" style="shape=cylinder3;whiteSpace=wrap;html=1;boundedLbl=1;backgroundOutline=1;size=15;fillColor=#dae8fc;strokeColor=#6c8ebf;" parent="1" vertex="1">
          <mxGeometry x="520" y="640" width="160" height="80" as="geometry" />
        </mxCell>
        <mxCell id="hqSXu8GDfhMuMuZGrUjH-6" style="edgeStyle=orthogonalEdgeStyle;rounded=0;orthogonalLoop=1;jettySize=auto;html=1;exitX=0.5;exitY=1;exitDx=0;exitDy=0;entryX=0.5;entryY=0;entryDx=0;entryDy=0;entryPerimeter=0;" parent="1" source="hqSXu8GDfhMuMuZGrUjH-4" target="hqSXu8GDfhMuMuZGrUjH-5" edge="1">
          <mxGeometry relative="1" as="geometry" />
        </mxCell>
        <mxCell id="hqSXu8GDfhMuMuZGrUjH-13" style="edgeStyle=orthogonalEdgeStyle;rounded=0;orthogonalLoop=1;jettySize=auto;html=1;exitX=0.5;exitY=1;exitDx=0;exitDy=0;" parent="1" source="hqSXu8GDfhMuMuZGrUjH-7" target="hqSXu8GDfhMuMuZGrUjH-8" edge="1">
          <mxGeometry relative="1" as="geometry" />
        </mxCell>
        <mxCell id="hqSXu8GDfhMuMuZGrUjH-7" value="restaurant microservice" style="rounded=1;whiteSpace=wrap;html=1;" parent="1" vertex="1">
          <mxGeometry x="1080" y="520" width="160" height="80" as="geometry" />
        </mxCell>
        <mxCell id="N9-u3PIbGsMnkZM41l7X-174" style="edgeStyle=orthogonalEdgeStyle;rounded=0;orthogonalLoop=1;jettySize=auto;html=1;exitX=0.5;exitY=1;exitDx=0;exitDy=0;exitPerimeter=0;entryX=0.5;entryY=0;entryDx=0;entryDy=0;" parent="1" source="hqSXu8GDfhMuMuZGrUjH-8" target="N9-u3PIbGsMnkZM41l7X-55" edge="1">
          <mxGeometry relative="1" as="geometry" />
        </mxCell>
        <mxCell id="hqSXu8GDfhMuMuZGrUjH-8" value="MongoDB restaurant&amp;nbsp;db" style="shape=cylinder3;whiteSpace=wrap;html=1;boundedLbl=1;backgroundOutline=1;size=15;fillColor=#d5e8d4;strokeColor=#82b366;" parent="1" vertex="1">
          <mxGeometry x="880" y="640" width="160" height="80" as="geometry" />
        </mxCell>
        <mxCell id="hqSXu8GDfhMuMuZGrUjH-14" style="edgeStyle=orthogonalEdgeStyle;rounded=0;orthogonalLoop=1;jettySize=auto;html=1;exitX=0.5;exitY=1;exitDx=0;exitDy=0;" parent="1" source="hqSXu8GDfhMuMuZGrUjH-9" target="hqSXu8GDfhMuMuZGrUjH-10" edge="1">
          <mxGeometry relative="1" as="geometry" />
        </mxCell>
        <mxCell id="hqSXu8GDfhMuMuZGrUjH-9" value="product microservice" style="rounded=1;whiteSpace=wrap;html=1;" parent="1" vertex="1">
          <mxGeometry x="1320" y="520" width="160" height="80" as="geometry" />
        </mxCell>
        <mxCell id="N9-u3PIbGsMnkZM41l7X-175" style="edgeStyle=orthogonalEdgeStyle;rounded=0;orthogonalLoop=1;jettySize=auto;html=1;exitX=0.5;exitY=1;exitDx=0;exitDy=0;exitPerimeter=0;entryX=0.5;entryY=0;entryDx=0;entryDy=0;" parent="1" source="hqSXu8GDfhMuMuZGrUjH-10" target="N9-u3PIbGsMnkZM41l7X-80" edge="1">
          <mxGeometry relative="1" as="geometry" />
        </mxCell>
        <mxCell id="hqSXu8GDfhMuMuZGrUjH-10" value="MongoDB product db" style="shape=cylinder3;whiteSpace=wrap;html=1;boundedLbl=1;backgroundOutline=1;size=15;fillColor=#d5e8d4;strokeColor=#82b366;" parent="1" vertex="1">
          <mxGeometry x="1240" y="640" width="160" height="80" as="geometry" />
        </mxCell>
        <mxCell id="hqSXu8GDfhMuMuZGrUjH-15" style="edgeStyle=orthogonalEdgeStyle;rounded=0;orthogonalLoop=1;jettySize=auto;html=1;exitX=0.5;exitY=1;exitDx=0;exitDy=0;" parent="1" source="hqSXu8GDfhMuMuZGrUjH-11" target="hqSXu8GDfhMuMuZGrUjH-12" edge="1">
          <mxGeometry relative="1" as="geometry" />
        </mxCell>
        <mxCell id="mWuXqvYvHXpTy9erS2ml-1" style="edgeStyle=orthogonalEdgeStyle;rounded=0;orthogonalLoop=1;jettySize=auto;html=1;exitX=0;exitY=0.5;exitDx=0;exitDy=0;entryX=1;entryY=0.5;entryDx=0;entryDy=0;" parent="1" source="hqSXu8GDfhMuMuZGrUjH-11" target="hqSXu8GDfhMuMuZGrUjH-9" edge="1">
          <mxGeometry relative="1" as="geometry" />
        </mxCell>
        <mxCell id="hqSXu8GDfhMuMuZGrUjH-11" value="order microservice" style="rounded=1;whiteSpace=wrap;html=1;" parent="1" vertex="1">
          <mxGeometry x="1560" y="520" width="160" height="80" as="geometry" />
        </mxCell>
        <mxCell id="N9-u3PIbGsMnkZM41l7X-176" style="edgeStyle=orthogonalEdgeStyle;rounded=0;orthogonalLoop=1;jettySize=auto;html=1;exitX=0.5;exitY=1;exitDx=0;exitDy=0;exitPerimeter=0;entryX=0.5;entryY=0;entryDx=0;entryDy=0;" parent="1" source="hqSXu8GDfhMuMuZGrUjH-12" target="N9-u3PIbGsMnkZM41l7X-109" edge="1">
          <mxGeometry relative="1" as="geometry" />
        </mxCell>
        <mxCell id="hqSXu8GDfhMuMuZGrUjH-12" value="MongoDB order db" style="shape=cylinder3;whiteSpace=wrap;html=1;boundedLbl=1;backgroundOutline=1;size=15;fillColor=#d5e8d4;strokeColor=#82b366;" parent="1" vertex="1">
          <mxGeometry x="1600" y="640" width="160" height="80" as="geometry" />
        </mxCell>
        <mxCell id="N9-u3PIbGsMnkZM41l7X-1" value="user" style="shape=table;startSize=30;container=1;collapsible=1;childLayout=tableLayout;fixedRows=1;rowLines=0;fontStyle=1;align=center;resizeLast=1;html=1;absoluteArcSize=0;columnLines=1;shadow=0;rounded=1;" parent="1" vertex="1">
          <mxGeometry x="80" y="760" width="320" height="340.00000000000017" as="geometry">
            <mxRectangle x="60" y="70" width="100" height="30" as="alternateBounds" />
          </mxGeometry>
        </mxCell>
        <mxCell id="N9-u3PIbGsMnkZM41l7X-2" value="" style="shape=tableRow;horizontal=0;startSize=0;swimlaneHead=0;swimlaneBody=0;fillColor=none;collapsible=0;dropTarget=0;points=[[0,0.5],[1,0.5]];portConstraint=eastwest;top=0;left=0;right=0;bottom=1;" parent="N9-u3PIbGsMnkZM41l7X-1" vertex="1">
          <mxGeometry y="30" width="320" height="30" as="geometry" />
        </mxCell>
        <mxCell id="N9-u3PIbGsMnkZM41l7X-3" value="PK" style="shape=partialRectangle;connectable=0;fillColor=none;top=0;left=0;bottom=0;right=0;fontStyle=1;overflow=hidden;whiteSpace=wrap;html=1;" parent="N9-u3PIbGsMnkZM41l7X-2" vertex="1">
          <mxGeometry width="30" height="30" as="geometry">
            <mxRectangle width="30" height="30" as="alternateBounds" />
          </mxGeometry>
        </mxCell>
        <mxCell id="N9-u3PIbGsMnkZM41l7X-4" value="id" style="shape=partialRectangle;connectable=0;fillColor=none;top=0;left=0;bottom=0;right=0;align=left;spacingLeft=6;fontStyle=5;overflow=hidden;whiteSpace=wrap;html=1;" parent="N9-u3PIbGsMnkZM41l7X-2" vertex="1">
          <mxGeometry x="30" width="130" height="30" as="geometry">
            <mxRectangle width="130" height="30" as="alternateBounds" />
          </mxGeometry>
        </mxCell>
        <mxCell id="N9-u3PIbGsMnkZM41l7X-5" value="UUID" style="shape=partialRectangle;connectable=0;fillColor=none;top=0;left=0;bottom=0;right=0;align=left;spacingLeft=6;fontStyle=5;overflow=hidden;whiteSpace=wrap;html=1;" parent="N9-u3PIbGsMnkZM41l7X-2" vertex="1">
          <mxGeometry x="160" width="160" height="30" as="geometry">
            <mxRectangle width="160" height="30" as="alternateBounds" />
          </mxGeometry>
        </mxCell>
        <mxCell id="N9-u3PIbGsMnkZM41l7X-6" style="shape=tableRow;horizontal=0;startSize=0;swimlaneHead=0;swimlaneBody=0;fillColor=none;collapsible=0;dropTarget=0;points=[[0,0.5],[1,0.5]];portConstraint=eastwest;top=0;left=0;right=0;bottom=0;" parent="N9-u3PIbGsMnkZM41l7X-1" vertex="1">
          <mxGeometry y="60" width="320" height="40" as="geometry" />
        </mxCell>
        <mxCell id="N9-u3PIbGsMnkZM41l7X-7" style="shape=partialRectangle;connectable=0;fillColor=none;top=0;left=0;bottom=0;right=0;editable=1;overflow=hidden;whiteSpace=wrap;html=1;" parent="N9-u3PIbGsMnkZM41l7X-6" vertex="1">
          <mxGeometry width="30" height="40" as="geometry">
            <mxRectangle width="30" height="40" as="alternateBounds" />
          </mxGeometry>
        </mxCell>
        <mxCell id="N9-u3PIbGsMnkZM41l7X-8" value="name" style="shape=partialRectangle;connectable=0;fillColor=none;top=0;left=0;bottom=0;right=0;align=left;spacingLeft=6;overflow=hidden;whiteSpace=wrap;html=1;" parent="N9-u3PIbGsMnkZM41l7X-6" vertex="1">
          <mxGeometry x="30" width="130" height="40" as="geometry">
            <mxRectangle width="130" height="40" as="alternateBounds" />
          </mxGeometry>
        </mxCell>
        <mxCell id="N9-u3PIbGsMnkZM41l7X-9" value="varchar(50)" style="shape=partialRectangle;connectable=0;fillColor=none;top=0;left=0;bottom=0;right=0;align=left;spacingLeft=6;overflow=hidden;whiteSpace=wrap;html=1;" parent="N9-u3PIbGsMnkZM41l7X-6" vertex="1">
          <mxGeometry x="160" width="160" height="40" as="geometry">
            <mxRectangle width="160" height="40" as="alternateBounds" />
          </mxGeometry>
        </mxCell>
        <mxCell id="N9-u3PIbGsMnkZM41l7X-10" value="" style="shape=tableRow;horizontal=0;startSize=0;swimlaneHead=0;swimlaneBody=0;fillColor=none;collapsible=0;dropTarget=0;points=[[0,0.5],[1,0.5]];portConstraint=eastwest;top=0;left=0;right=0;bottom=0;" parent="N9-u3PIbGsMnkZM41l7X-1" vertex="1">
          <mxGeometry y="100" width="320" height="40" as="geometry" />
        </mxCell>
        <mxCell id="N9-u3PIbGsMnkZM41l7X-11" value="" style="shape=partialRectangle;connectable=0;fillColor=none;top=0;left=0;bottom=0;right=0;editable=1;overflow=hidden;whiteSpace=wrap;html=1;" parent="N9-u3PIbGsMnkZM41l7X-10" vertex="1">
          <mxGeometry width="30" height="40" as="geometry">
            <mxRectangle width="30" height="40" as="alternateBounds" />
          </mxGeometry>
        </mxCell>
        <mxCell id="N9-u3PIbGsMnkZM41l7X-12" value="phone" style="shape=partialRectangle;connectable=0;fillColor=none;top=0;left=0;bottom=0;right=0;align=left;spacingLeft=6;overflow=hidden;whiteSpace=wrap;html=1;" parent="N9-u3PIbGsMnkZM41l7X-10" vertex="1">
          <mxGeometry x="30" width="130" height="40" as="geometry">
            <mxRectangle width="130" height="40" as="alternateBounds" />
          </mxGeometry>
        </mxCell>
        <mxCell id="N9-u3PIbGsMnkZM41l7X-13" value="varchar(15)" style="shape=partialRectangle;connectable=0;fillColor=none;top=0;left=0;bottom=0;right=0;align=left;spacingLeft=6;overflow=hidden;whiteSpace=wrap;html=1;" parent="N9-u3PIbGsMnkZM41l7X-10" vertex="1">
          <mxGeometry x="160" width="160" height="40" as="geometry">
            <mxRectangle width="160" height="40" as="alternateBounds" />
          </mxGeometry>
        </mxCell>
        <mxCell id="N9-u3PIbGsMnkZM41l7X-14" value="" style="shape=tableRow;horizontal=0;startSize=0;swimlaneHead=0;swimlaneBody=0;fillColor=none;collapsible=0;dropTarget=0;points=[[0,0.5],[1,0.5]];portConstraint=eastwest;top=0;left=0;right=0;bottom=0;" parent="N9-u3PIbGsMnkZM41l7X-1" vertex="1">
          <mxGeometry y="140" width="320" height="40" as="geometry" />
        </mxCell>
        <mxCell id="N9-u3PIbGsMnkZM41l7X-15" value="" style="shape=partialRectangle;connectable=0;fillColor=none;top=0;left=0;bottom=0;right=0;editable=1;overflow=hidden;whiteSpace=wrap;html=1;" parent="N9-u3PIbGsMnkZM41l7X-14" vertex="1">
          <mxGeometry width="30" height="40" as="geometry">
            <mxRectangle width="30" height="40" as="alternateBounds" />
          </mxGeometry>
        </mxCell>
        <mxCell id="N9-u3PIbGsMnkZM41l7X-16" value="email" style="shape=partialRectangle;connectable=0;fillColor=none;top=0;left=0;bottom=0;right=0;align=left;spacingLeft=6;overflow=hidden;whiteSpace=wrap;html=1;" parent="N9-u3PIbGsMnkZM41l7X-14" vertex="1">
          <mxGeometry x="30" width="130" height="40" as="geometry">
            <mxRectangle width="130" height="40" as="alternateBounds" />
          </mxGeometry>
        </mxCell>
        <mxCell id="N9-u3PIbGsMnkZM41l7X-17" value="varchar(320)" style="shape=partialRectangle;connectable=0;fillColor=none;top=0;left=0;bottom=0;right=0;align=left;spacingLeft=6;overflow=hidden;whiteSpace=wrap;html=1;" parent="N9-u3PIbGsMnkZM41l7X-14" vertex="1">
          <mxGeometry x="160" width="160" height="40" as="geometry">
            <mxRectangle width="160" height="40" as="alternateBounds" />
          </mxGeometry>
        </mxCell>
        <mxCell id="N9-u3PIbGsMnkZM41l7X-18" value="" style="shape=tableRow;horizontal=0;startSize=0;swimlaneHead=0;swimlaneBody=0;fillColor=none;collapsible=0;dropTarget=0;points=[[0,0.5],[1,0.5]];portConstraint=eastwest;top=0;left=0;right=0;bottom=0;" parent="N9-u3PIbGsMnkZM41l7X-1" vertex="1">
          <mxGeometry y="180" width="320" height="40" as="geometry" />
        </mxCell>
        <mxCell id="N9-u3PIbGsMnkZM41l7X-19" value="" style="shape=partialRectangle;connectable=0;fillColor=none;top=0;left=0;bottom=0;right=0;editable=1;overflow=hidden;whiteSpace=wrap;html=1;" parent="N9-u3PIbGsMnkZM41l7X-18" vertex="1">
          <mxGeometry width="30" height="40" as="geometry">
            <mxRectangle width="30" height="40" as="alternateBounds" />
          </mxGeometry>
        </mxCell>
        <mxCell id="N9-u3PIbGsMnkZM41l7X-20" value="password" style="shape=partialRectangle;connectable=0;fillColor=none;top=0;left=0;bottom=0;right=0;align=left;spacingLeft=6;overflow=hidden;whiteSpace=wrap;html=1;" parent="N9-u3PIbGsMnkZM41l7X-18" vertex="1">
          <mxGeometry x="30" width="130" height="40" as="geometry">
            <mxRectangle width="130" height="40" as="alternateBounds" />
          </mxGeometry>
        </mxCell>
        <mxCell id="N9-u3PIbGsMnkZM41l7X-21" value="varchar(300)" style="shape=partialRectangle;connectable=0;fillColor=none;top=0;left=0;bottom=0;right=0;align=left;spacingLeft=6;overflow=hidden;whiteSpace=wrap;html=1;" parent="N9-u3PIbGsMnkZM41l7X-18" vertex="1">
          <mxGeometry x="160" width="160" height="40" as="geometry">
            <mxRectangle width="160" height="40" as="alternateBounds" />
          </mxGeometry>
        </mxCell>
        <mxCell id="N9-u3PIbGsMnkZM41l7X-22" value="" style="shape=tableRow;horizontal=0;startSize=0;swimlaneHead=0;swimlaneBody=0;fillColor=none;collapsible=0;dropTarget=0;points=[[0,0.5],[1,0.5]];portConstraint=eastwest;top=0;left=0;right=0;bottom=0;" parent="N9-u3PIbGsMnkZM41l7X-1" vertex="1">
          <mxGeometry y="220" width="320" height="40" as="geometry" />
        </mxCell>
        <mxCell id="N9-u3PIbGsMnkZM41l7X-23" value="" style="shape=partialRectangle;connectable=0;fillColor=none;top=0;left=0;bottom=0;right=0;editable=1;overflow=hidden;whiteSpace=wrap;html=1;" parent="N9-u3PIbGsMnkZM41l7X-22" vertex="1">
          <mxGeometry width="30" height="40" as="geometry">
            <mxRectangle width="30" height="40" as="alternateBounds" />
          </mxGeometry>
        </mxCell>
        <mxCell id="N9-u3PIbGsMnkZM41l7X-24" value="date_of_birth" style="shape=partialRectangle;connectable=0;fillColor=none;top=0;left=0;bottom=0;right=0;align=left;spacingLeft=6;overflow=hidden;whiteSpace=wrap;html=1;" parent="N9-u3PIbGsMnkZM41l7X-22" vertex="1">
          <mxGeometry x="30" width="130" height="40" as="geometry">
            <mxRectangle width="130" height="40" as="alternateBounds" />
          </mxGeometry>
        </mxCell>
        <mxCell id="N9-u3PIbGsMnkZM41l7X-25" value="date" style="shape=partialRectangle;connectable=0;fillColor=none;top=0;left=0;bottom=0;right=0;align=left;spacingLeft=6;overflow=hidden;whiteSpace=wrap;html=1;" parent="N9-u3PIbGsMnkZM41l7X-22" vertex="1">
          <mxGeometry x="160" width="160" height="40" as="geometry">
            <mxRectangle width="160" height="40" as="alternateBounds" />
          </mxGeometry>
        </mxCell>
        <mxCell id="N9-u3PIbGsMnkZM41l7X-26" value="" style="shape=tableRow;horizontal=0;startSize=0;swimlaneHead=0;swimlaneBody=0;fillColor=none;collapsible=0;dropTarget=0;points=[[0,0.5],[1,0.5]];portConstraint=eastwest;top=0;left=0;right=0;bottom=0;" parent="N9-u3PIbGsMnkZM41l7X-1" vertex="1">
          <mxGeometry y="260" width="320" height="40" as="geometry" />
        </mxCell>
        <mxCell id="N9-u3PIbGsMnkZM41l7X-27" value="" style="shape=partialRectangle;connectable=0;fillColor=none;top=0;left=0;bottom=0;right=0;editable=1;overflow=hidden;whiteSpace=wrap;html=1;" parent="N9-u3PIbGsMnkZM41l7X-26" vertex="1">
          <mxGeometry width="30" height="40" as="geometry">
            <mxRectangle width="30" height="40" as="alternateBounds" />
          </mxGeometry>
        </mxCell>
        <mxCell id="N9-u3PIbGsMnkZM41l7X-28" value="gender" style="shape=partialRectangle;connectable=0;fillColor=none;top=0;left=0;bottom=0;right=0;align=left;spacingLeft=6;overflow=hidden;whiteSpace=wrap;html=1;" parent="N9-u3PIbGsMnkZM41l7X-26" vertex="1">
          <mxGeometry x="30" width="130" height="40" as="geometry">
            <mxRectangle width="130" height="40" as="alternateBounds" />
          </mxGeometry>
        </mxCell>
        <mxCell id="N9-u3PIbGsMnkZM41l7X-29" value="varchar(50)" style="shape=partialRectangle;connectable=0;fillColor=none;top=0;left=0;bottom=0;right=0;align=left;spacingLeft=6;overflow=hidden;whiteSpace=wrap;html=1;" parent="N9-u3PIbGsMnkZM41l7X-26" vertex="1">
          <mxGeometry x="160" width="160" height="40" as="geometry">
            <mxRectangle width="160" height="40" as="alternateBounds" />
          </mxGeometry>
        </mxCell>
        <mxCell id="N9-u3PIbGsMnkZM41l7X-30" style="shape=tableRow;horizontal=0;startSize=0;swimlaneHead=0;swimlaneBody=0;fillColor=none;collapsible=0;dropTarget=0;points=[[0,0.5],[1,0.5]];portConstraint=eastwest;top=0;left=0;right=0;bottom=0;" parent="N9-u3PIbGsMnkZM41l7X-1" vertex="1">
          <mxGeometry y="300" width="320" height="40" as="geometry" />
        </mxCell>
        <mxCell id="N9-u3PIbGsMnkZM41l7X-31" style="shape=partialRectangle;connectable=0;fillColor=none;top=0;left=0;bottom=0;right=0;editable=1;overflow=hidden;whiteSpace=wrap;html=1;" parent="N9-u3PIbGsMnkZM41l7X-30" vertex="1">
          <mxGeometry width="30" height="40" as="geometry">
            <mxRectangle width="30" height="40" as="alternateBounds" />
          </mxGeometry>
        </mxCell>
        <mxCell id="N9-u3PIbGsMnkZM41l7X-32" value="role" style="shape=partialRectangle;connectable=0;fillColor=none;top=0;left=0;bottom=0;right=0;align=left;spacingLeft=6;overflow=hidden;whiteSpace=wrap;html=1;" parent="N9-u3PIbGsMnkZM41l7X-30" vertex="1">
          <mxGeometry x="30" width="130" height="40" as="geometry">
            <mxRectangle width="130" height="40" as="alternateBounds" />
          </mxGeometry>
        </mxCell>
        <mxCell id="N9-u3PIbGsMnkZM41l7X-33" value="varchar(50)" style="shape=partialRectangle;connectable=0;fillColor=none;top=0;left=0;bottom=0;right=0;align=left;spacingLeft=6;overflow=hidden;whiteSpace=wrap;html=1;" parent="N9-u3PIbGsMnkZM41l7X-30" vertex="1">
          <mxGeometry x="160" width="160" height="40" as="geometry">
            <mxRectangle width="160" height="40" as="alternateBounds" />
          </mxGeometry>
        </mxCell>
        <mxCell id="N9-u3PIbGsMnkZM41l7X-34" value="card" style="shape=table;startSize=30;container=1;collapsible=1;childLayout=tableLayout;fixedRows=1;rowLines=0;fontStyle=1;align=center;resizeLast=1;html=1;absoluteArcSize=0;columnLines=1;shadow=0;rounded=1;" parent="1" vertex="1">
          <mxGeometry x="440" y="760" width="320" height="220.00000000000017" as="geometry">
            <mxRectangle x="60" y="70" width="100" height="30" as="alternateBounds" />
          </mxGeometry>
        </mxCell>
        <mxCell id="N9-u3PIbGsMnkZM41l7X-35" value="" style="shape=tableRow;horizontal=0;startSize=0;swimlaneHead=0;swimlaneBody=0;fillColor=none;collapsible=0;dropTarget=0;points=[[0,0.5],[1,0.5]];portConstraint=eastwest;top=0;left=0;right=0;bottom=1;" parent="N9-u3PIbGsMnkZM41l7X-34" vertex="1">
          <mxGeometry y="30" width="320" height="30" as="geometry" />
        </mxCell>
        <mxCell id="N9-u3PIbGsMnkZM41l7X-36" value="PK" style="shape=partialRectangle;connectable=0;fillColor=none;top=0;left=0;bottom=0;right=0;fontStyle=1;overflow=hidden;whiteSpace=wrap;html=1;" parent="N9-u3PIbGsMnkZM41l7X-35" vertex="1">
          <mxGeometry width="30" height="30" as="geometry">
            <mxRectangle width="30" height="30" as="alternateBounds" />
          </mxGeometry>
        </mxCell>
        <mxCell id="N9-u3PIbGsMnkZM41l7X-37" value="id" style="shape=partialRectangle;connectable=0;fillColor=none;top=0;left=0;bottom=0;right=0;align=left;spacingLeft=6;fontStyle=5;overflow=hidden;whiteSpace=wrap;html=1;" parent="N9-u3PIbGsMnkZM41l7X-35" vertex="1">
          <mxGeometry x="30" width="130" height="30" as="geometry">
            <mxRectangle width="130" height="30" as="alternateBounds" />
          </mxGeometry>
        </mxCell>
        <mxCell id="N9-u3PIbGsMnkZM41l7X-38" value="UUID" style="shape=partialRectangle;connectable=0;fillColor=none;top=0;left=0;bottom=0;right=0;align=left;spacingLeft=6;fontStyle=5;overflow=hidden;whiteSpace=wrap;html=1;" parent="N9-u3PIbGsMnkZM41l7X-35" vertex="1">
          <mxGeometry x="160" width="160" height="30" as="geometry">
            <mxRectangle width="160" height="30" as="alternateBounds" />
          </mxGeometry>
        </mxCell>
        <mxCell id="N9-u3PIbGsMnkZM41l7X-39" value="" style="shape=tableRow;horizontal=0;startSize=0;swimlaneHead=0;swimlaneBody=0;fillColor=none;collapsible=0;dropTarget=0;points=[[0,0.5],[1,0.5]];portConstraint=eastwest;top=0;left=0;right=0;bottom=0;" parent="N9-u3PIbGsMnkZM41l7X-34" vertex="1">
          <mxGeometry y="60" width="320" height="40" as="geometry" />
        </mxCell>
        <mxCell id="N9-u3PIbGsMnkZM41l7X-40" value="" style="shape=partialRectangle;connectable=0;fillColor=none;top=0;left=0;bottom=0;right=0;editable=1;overflow=hidden;whiteSpace=wrap;html=1;" parent="N9-u3PIbGsMnkZM41l7X-39" vertex="1">
          <mxGeometry width="30" height="40" as="geometry">
            <mxRectangle width="30" height="40" as="alternateBounds" />
          </mxGeometry>
        </mxCell>
        <mxCell id="N9-u3PIbGsMnkZM41l7X-41" value="user_id" style="shape=partialRectangle;connectable=0;fillColor=none;top=0;left=0;bottom=0;right=0;align=left;spacingLeft=6;overflow=hidden;whiteSpace=wrap;html=1;" parent="N9-u3PIbGsMnkZM41l7X-39" vertex="1">
          <mxGeometry x="30" width="130" height="40" as="geometry">
            <mxRectangle width="130" height="40" as="alternateBounds" />
          </mxGeometry>
        </mxCell>
        <mxCell id="N9-u3PIbGsMnkZM41l7X-42" value="UUID" style="shape=partialRectangle;connectable=0;fillColor=none;top=0;left=0;bottom=0;right=0;align=left;spacingLeft=6;overflow=hidden;whiteSpace=wrap;html=1;" parent="N9-u3PIbGsMnkZM41l7X-39" vertex="1">
          <mxGeometry x="160" width="160" height="40" as="geometry">
            <mxRectangle width="160" height="40" as="alternateBounds" />
          </mxGeometry>
        </mxCell>
        <mxCell id="N9-u3PIbGsMnkZM41l7X-43" value="" style="shape=tableRow;horizontal=0;startSize=0;swimlaneHead=0;swimlaneBody=0;fillColor=none;collapsible=0;dropTarget=0;points=[[0,0.5],[1,0.5]];portConstraint=eastwest;top=0;left=0;right=0;bottom=0;" parent="N9-u3PIbGsMnkZM41l7X-34" vertex="1">
          <mxGeometry y="100" width="320" height="40" as="geometry" />
        </mxCell>
        <mxCell id="N9-u3PIbGsMnkZM41l7X-44" value="" style="shape=partialRectangle;connectable=0;fillColor=none;top=0;left=0;bottom=0;right=0;editable=1;overflow=hidden;whiteSpace=wrap;html=1;" parent="N9-u3PIbGsMnkZM41l7X-43" vertex="1">
          <mxGeometry width="30" height="40" as="geometry">
            <mxRectangle width="30" height="40" as="alternateBounds" />
          </mxGeometry>
        </mxCell>
        <mxCell id="N9-u3PIbGsMnkZM41l7X-45" value="number" style="shape=partialRectangle;connectable=0;fillColor=none;top=0;left=0;bottom=0;right=0;align=left;spacingLeft=6;overflow=hidden;whiteSpace=wrap;html=1;" parent="N9-u3PIbGsMnkZM41l7X-43" vertex="1">
          <mxGeometry x="30" width="130" height="40" as="geometry">
            <mxRectangle width="130" height="40" as="alternateBounds" />
          </mxGeometry>
        </mxCell>
        <mxCell id="N9-u3PIbGsMnkZM41l7X-46" value="varchar(16)" style="shape=partialRectangle;connectable=0;fillColor=none;top=0;left=0;bottom=0;right=0;align=left;spacingLeft=6;overflow=hidden;whiteSpace=wrap;html=1;" parent="N9-u3PIbGsMnkZM41l7X-43" vertex="1">
          <mxGeometry x="160" width="160" height="40" as="geometry">
            <mxRectangle width="160" height="40" as="alternateBounds" />
          </mxGeometry>
        </mxCell>
        <mxCell id="N9-u3PIbGsMnkZM41l7X-47" value="" style="shape=tableRow;horizontal=0;startSize=0;swimlaneHead=0;swimlaneBody=0;fillColor=none;collapsible=0;dropTarget=0;points=[[0,0.5],[1,0.5]];portConstraint=eastwest;top=0;left=0;right=0;bottom=0;" parent="N9-u3PIbGsMnkZM41l7X-34" vertex="1">
          <mxGeometry y="140" width="320" height="40" as="geometry" />
        </mxCell>
        <mxCell id="N9-u3PIbGsMnkZM41l7X-48" value="" style="shape=partialRectangle;connectable=0;fillColor=none;top=0;left=0;bottom=0;right=0;editable=1;overflow=hidden;whiteSpace=wrap;html=1;" parent="N9-u3PIbGsMnkZM41l7X-47" vertex="1">
          <mxGeometry width="30" height="40" as="geometry">
            <mxRectangle width="30" height="40" as="alternateBounds" />
          </mxGeometry>
        </mxCell>
        <mxCell id="N9-u3PIbGsMnkZM41l7X-49" value="type" style="shape=partialRectangle;connectable=0;fillColor=none;top=0;left=0;bottom=0;right=0;align=left;spacingLeft=6;overflow=hidden;whiteSpace=wrap;html=1;" parent="N9-u3PIbGsMnkZM41l7X-47" vertex="1">
          <mxGeometry x="30" width="130" height="40" as="geometry">
            <mxRectangle width="130" height="40" as="alternateBounds" />
          </mxGeometry>
        </mxCell>
        <mxCell id="N9-u3PIbGsMnkZM41l7X-50" value="varchar(50)" style="shape=partialRectangle;connectable=0;fillColor=none;top=0;left=0;bottom=0;right=0;align=left;spacingLeft=6;overflow=hidden;whiteSpace=wrap;html=1;" parent="N9-u3PIbGsMnkZM41l7X-47" vertex="1">
          <mxGeometry x="160" width="160" height="40" as="geometry">
            <mxRectangle width="160" height="40" as="alternateBounds" />
          </mxGeometry>
        </mxCell>
        <mxCell id="N9-u3PIbGsMnkZM41l7X-51" value="" style="shape=tableRow;horizontal=0;startSize=0;swimlaneHead=0;swimlaneBody=0;fillColor=none;collapsible=0;dropTarget=0;points=[[0,0.5],[1,0.5]];portConstraint=eastwest;top=0;left=0;right=0;bottom=0;" parent="N9-u3PIbGsMnkZM41l7X-34" vertex="1">
          <mxGeometry y="180" width="320" height="40" as="geometry" />
        </mxCell>
        <mxCell id="N9-u3PIbGsMnkZM41l7X-52" value="" style="shape=partialRectangle;connectable=0;fillColor=none;top=0;left=0;bottom=0;right=0;editable=1;overflow=hidden;whiteSpace=wrap;html=1;" parent="N9-u3PIbGsMnkZM41l7X-51" vertex="1">
          <mxGeometry width="30" height="40" as="geometry">
            <mxRectangle width="30" height="40" as="alternateBounds" />
          </mxGeometry>
        </mxCell>
        <mxCell id="N9-u3PIbGsMnkZM41l7X-53" value="discount" style="shape=partialRectangle;connectable=0;fillColor=none;top=0;left=0;bottom=0;right=0;align=left;spacingLeft=6;overflow=hidden;whiteSpace=wrap;html=1;" parent="N9-u3PIbGsMnkZM41l7X-51" vertex="1">
          <mxGeometry x="30" width="130" height="40" as="geometry">
            <mxRectangle width="130" height="40" as="alternateBounds" />
          </mxGeometry>
        </mxCell>
        <mxCell id="N9-u3PIbGsMnkZM41l7X-54" value="float" style="shape=partialRectangle;connectable=0;fillColor=none;top=0;left=0;bottom=0;right=0;align=left;spacingLeft=6;overflow=hidden;whiteSpace=wrap;html=1;" parent="N9-u3PIbGsMnkZM41l7X-51" vertex="1">
          <mxGeometry x="160" width="160" height="40" as="geometry">
            <mxRectangle width="160" height="40" as="alternateBounds" />
          </mxGeometry>
        </mxCell>
        <mxCell id="N9-u3PIbGsMnkZM41l7X-55" value="restaurant" style="shape=table;startSize=30;container=1;collapsible=1;childLayout=tableLayout;fixedRows=1;rowLines=0;fontStyle=1;align=center;resizeLast=1;html=1;rounded=1;" parent="1" vertex="1">
          <mxGeometry x="800" y="760" width="320" height="210" as="geometry" />
        </mxCell>
        <mxCell id="N9-u3PIbGsMnkZM41l7X-56" value="" style="shape=tableRow;horizontal=0;startSize=0;swimlaneHead=0;swimlaneBody=0;fillColor=none;collapsible=0;dropTarget=0;points=[[0,0.5],[1,0.5]];portConstraint=eastwest;top=0;left=0;right=0;bottom=0;" parent="N9-u3PIbGsMnkZM41l7X-55" vertex="1">
          <mxGeometry y="30" width="320" height="30" as="geometry" />
        </mxCell>
        <mxCell id="N9-u3PIbGsMnkZM41l7X-57" value="" style="shape=partialRectangle;connectable=0;fillColor=none;top=0;left=0;bottom=0;right=0;editable=1;overflow=hidden;whiteSpace=wrap;html=1;" parent="N9-u3PIbGsMnkZM41l7X-56" vertex="1">
          <mxGeometry width="30" height="30" as="geometry">
            <mxRectangle width="30" height="30" as="alternateBounds" />
          </mxGeometry>
        </mxCell>
        <mxCell id="N9-u3PIbGsMnkZM41l7X-58" value="address" style="shape=partialRectangle;connectable=0;fillColor=none;top=0;left=0;bottom=0;right=0;align=left;spacingLeft=6;overflow=hidden;whiteSpace=wrap;html=1;" parent="N9-u3PIbGsMnkZM41l7X-56" vertex="1">
          <mxGeometry x="30" width="130" height="30" as="geometry">
            <mxRectangle width="130" height="30" as="alternateBounds" />
          </mxGeometry>
        </mxCell>
        <mxCell id="N9-u3PIbGsMnkZM41l7X-59" value="string" style="shape=partialRectangle;connectable=0;fillColor=none;top=0;left=0;bottom=0;right=0;align=left;spacingLeft=6;overflow=hidden;whiteSpace=wrap;html=1;" parent="N9-u3PIbGsMnkZM41l7X-56" vertex="1">
          <mxGeometry x="160" width="160" height="30" as="geometry">
            <mxRectangle width="160" height="30" as="alternateBounds" />
          </mxGeometry>
        </mxCell>
        <mxCell id="N9-u3PIbGsMnkZM41l7X-60" value="" style="shape=tableRow;horizontal=0;startSize=0;swimlaneHead=0;swimlaneBody=0;fillColor=none;collapsible=0;dropTarget=0;points=[[0,0.5],[1,0.5]];portConstraint=eastwest;top=0;left=0;right=0;bottom=0;" parent="N9-u3PIbGsMnkZM41l7X-55" vertex="1">
          <mxGeometry y="60" width="320" height="30" as="geometry" />
        </mxCell>
        <mxCell id="N9-u3PIbGsMnkZM41l7X-61" value="" style="shape=partialRectangle;connectable=0;fillColor=none;top=0;left=0;bottom=0;right=0;editable=1;overflow=hidden;whiteSpace=wrap;html=1;" parent="N9-u3PIbGsMnkZM41l7X-60" vertex="1">
          <mxGeometry width="30" height="30" as="geometry">
            <mxRectangle width="30" height="30" as="alternateBounds" />
          </mxGeometry>
        </mxCell>
        <mxCell id="N9-u3PIbGsMnkZM41l7X-62" value="phone" style="shape=partialRectangle;connectable=0;fillColor=none;top=0;left=0;bottom=0;right=0;align=left;spacingLeft=6;overflow=hidden;whiteSpace=wrap;html=1;" parent="N9-u3PIbGsMnkZM41l7X-60" vertex="1">
          <mxGeometry x="30" width="130" height="30" as="geometry">
            <mxRectangle width="130" height="30" as="alternateBounds" />
          </mxGeometry>
        </mxCell>
        <mxCell id="N9-u3PIbGsMnkZM41l7X-63" value="string" style="shape=partialRectangle;connectable=0;fillColor=none;top=0;left=0;bottom=0;right=0;align=left;spacingLeft=6;overflow=hidden;whiteSpace=wrap;html=1;" parent="N9-u3PIbGsMnkZM41l7X-60" vertex="1">
          <mxGeometry x="160" width="160" height="30" as="geometry">
            <mxRectangle width="160" height="30" as="alternateBounds" />
          </mxGeometry>
        </mxCell>
        <mxCell id="N9-u3PIbGsMnkZM41l7X-64" value="" style="shape=tableRow;horizontal=0;startSize=0;swimlaneHead=0;swimlaneBody=0;fillColor=none;collapsible=0;dropTarget=0;points=[[0,0.5],[1,0.5]];portConstraint=eastwest;top=0;left=0;right=0;bottom=0;" parent="N9-u3PIbGsMnkZM41l7X-55" vertex="1">
          <mxGeometry y="90" width="320" height="30" as="geometry" />
        </mxCell>
        <mxCell id="N9-u3PIbGsMnkZM41l7X-65" value="" style="shape=partialRectangle;connectable=0;fillColor=none;top=0;left=0;bottom=0;right=0;editable=1;overflow=hidden;whiteSpace=wrap;html=1;" parent="N9-u3PIbGsMnkZM41l7X-64" vertex="1">
          <mxGeometry width="30" height="30" as="geometry">
            <mxRectangle width="30" height="30" as="alternateBounds" />
          </mxGeometry>
        </mxCell>
        <mxCell id="N9-u3PIbGsMnkZM41l7X-66" value="opening_hours_from" style="shape=partialRectangle;connectable=0;fillColor=none;top=0;left=0;bottom=0;right=0;align=left;spacingLeft=6;overflow=hidden;whiteSpace=wrap;html=1;" parent="N9-u3PIbGsMnkZM41l7X-64" vertex="1">
          <mxGeometry x="30" width="130" height="30" as="geometry">
            <mxRectangle width="130" height="30" as="alternateBounds" />
          </mxGeometry>
        </mxCell>
        <mxCell id="N9-u3PIbGsMnkZM41l7X-67" value="timestamp" style="shape=partialRectangle;connectable=0;fillColor=none;top=0;left=0;bottom=0;right=0;align=left;spacingLeft=6;overflow=hidden;whiteSpace=wrap;html=1;" parent="N9-u3PIbGsMnkZM41l7X-64" vertex="1">
          <mxGeometry x="160" width="160" height="30" as="geometry">
            <mxRectangle width="160" height="30" as="alternateBounds" />
          </mxGeometry>
        </mxCell>
        <mxCell id="N9-u3PIbGsMnkZM41l7X-68" value="" style="shape=tableRow;horizontal=0;startSize=0;swimlaneHead=0;swimlaneBody=0;fillColor=none;collapsible=0;dropTarget=0;points=[[0,0.5],[1,0.5]];portConstraint=eastwest;top=0;left=0;right=0;bottom=0;" parent="N9-u3PIbGsMnkZM41l7X-55" vertex="1">
          <mxGeometry y="120" width="320" height="30" as="geometry" />
        </mxCell>
        <mxCell id="N9-u3PIbGsMnkZM41l7X-69" value="" style="shape=partialRectangle;connectable=0;fillColor=none;top=0;left=0;bottom=0;right=0;editable=1;overflow=hidden;whiteSpace=wrap;html=1;" parent="N9-u3PIbGsMnkZM41l7X-68" vertex="1">
          <mxGeometry width="30" height="30" as="geometry">
            <mxRectangle width="30" height="30" as="alternateBounds" />
          </mxGeometry>
        </mxCell>
        <mxCell id="N9-u3PIbGsMnkZM41l7X-70" value="opening_hours_to" style="shape=partialRectangle;connectable=0;fillColor=none;top=0;left=0;bottom=0;right=0;align=left;spacingLeft=6;overflow=hidden;whiteSpace=wrap;html=1;" parent="N9-u3PIbGsMnkZM41l7X-68" vertex="1">
          <mxGeometry x="30" width="130" height="30" as="geometry">
            <mxRectangle width="130" height="30" as="alternateBounds" />
          </mxGeometry>
        </mxCell>
        <mxCell id="N9-u3PIbGsMnkZM41l7X-71" value="timestamp" style="shape=partialRectangle;connectable=0;fillColor=none;top=0;left=0;bottom=0;right=0;align=left;spacingLeft=6;overflow=hidden;whiteSpace=wrap;html=1;" parent="N9-u3PIbGsMnkZM41l7X-68" vertex="1">
          <mxGeometry x="160" width="160" height="30" as="geometry">
            <mxRectangle width="160" height="30" as="alternateBounds" />
          </mxGeometry>
        </mxCell>
        <mxCell id="N9-u3PIbGsMnkZM41l7X-72" style="shape=tableRow;horizontal=0;startSize=0;swimlaneHead=0;swimlaneBody=0;fillColor=none;collapsible=0;dropTarget=0;points=[[0,0.5],[1,0.5]];portConstraint=eastwest;top=0;left=0;right=0;bottom=0;" parent="N9-u3PIbGsMnkZM41l7X-55" vertex="1">
          <mxGeometry y="150" width="320" height="30" as="geometry" />
        </mxCell>
        <mxCell id="N9-u3PIbGsMnkZM41l7X-73" style="shape=partialRectangle;connectable=0;fillColor=none;top=0;left=0;bottom=0;right=0;editable=1;overflow=hidden;whiteSpace=wrap;html=1;" parent="N9-u3PIbGsMnkZM41l7X-72" vertex="1">
          <mxGeometry width="30" height="30" as="geometry">
            <mxRectangle width="30" height="30" as="alternateBounds" />
          </mxGeometry>
        </mxCell>
        <mxCell id="N9-u3PIbGsMnkZM41l7X-74" value="menu_products" style="shape=partialRectangle;connectable=0;fillColor=none;top=0;left=0;bottom=0;right=0;align=left;spacingLeft=6;overflow=hidden;whiteSpace=wrap;html=1;" parent="N9-u3PIbGsMnkZM41l7X-72" vertex="1">
          <mxGeometry x="30" width="130" height="30" as="geometry">
            <mxRectangle width="130" height="30" as="alternateBounds" />
          </mxGeometry>
        </mxCell>
        <mxCell id="N9-u3PIbGsMnkZM41l7X-75" value="[product_ids]" style="shape=partialRectangle;connectable=0;fillColor=none;top=0;left=0;bottom=0;right=0;align=left;spacingLeft=6;overflow=hidden;whiteSpace=wrap;html=1;" parent="N9-u3PIbGsMnkZM41l7X-72" vertex="1">
          <mxGeometry x="160" width="160" height="30" as="geometry">
            <mxRectangle width="160" height="30" as="alternateBounds" />
          </mxGeometry>
        </mxCell>
        <mxCell id="N9-u3PIbGsMnkZM41l7X-76" style="shape=tableRow;horizontal=0;startSize=0;swimlaneHead=0;swimlaneBody=0;fillColor=none;collapsible=0;dropTarget=0;points=[[0,0.5],[1,0.5]];portConstraint=eastwest;top=0;left=0;right=0;bottom=0;" parent="N9-u3PIbGsMnkZM41l7X-55" vertex="1">
          <mxGeometry y="180" width="320" height="30" as="geometry" />
        </mxCell>
        <mxCell id="N9-u3PIbGsMnkZM41l7X-77" style="shape=partialRectangle;connectable=0;fillColor=none;top=0;left=0;bottom=0;right=0;editable=1;overflow=hidden;whiteSpace=wrap;html=1;" parent="N9-u3PIbGsMnkZM41l7X-76" vertex="1">
          <mxGeometry width="30" height="30" as="geometry">
            <mxRectangle width="30" height="30" as="alternateBounds" />
          </mxGeometry>
        </mxCell>
        <mxCell id="N9-u3PIbGsMnkZM41l7X-78" value="menu_options" style="shape=partialRectangle;connectable=0;fillColor=none;top=0;left=0;bottom=0;right=0;align=left;spacingLeft=6;overflow=hidden;whiteSpace=wrap;html=1;" parent="N9-u3PIbGsMnkZM41l7X-76" vertex="1">
          <mxGeometry x="30" width="130" height="30" as="geometry">
            <mxRectangle width="130" height="30" as="alternateBounds" />
          </mxGeometry>
        </mxCell>
        <mxCell id="N9-u3PIbGsMnkZM41l7X-79" value="[option_ids]" style="shape=partialRectangle;connectable=0;fillColor=none;top=0;left=0;bottom=0;right=0;align=left;spacingLeft=6;overflow=hidden;whiteSpace=wrap;html=1;" parent="N9-u3PIbGsMnkZM41l7X-76" vertex="1">
          <mxGeometry x="160" width="160" height="30" as="geometry">
            <mxRectangle width="160" height="30" as="alternateBounds" />
          </mxGeometry>
        </mxCell>
        <mxCell id="N9-u3PIbGsMnkZM41l7X-80" value="product" style="shape=table;startSize=30;container=1;collapsible=1;childLayout=tableLayout;fixedRows=1;rowLines=0;fontStyle=1;align=center;resizeLast=1;html=1;rounded=1;" parent="1" vertex="1">
          <mxGeometry x="1160" y="760" width="320" height="240" as="geometry" />
        </mxCell>
        <mxCell id="N9-u3PIbGsMnkZM41l7X-81" value="" style="shape=tableRow;horizontal=0;startSize=0;swimlaneHead=0;swimlaneBody=0;fillColor=none;collapsible=0;dropTarget=0;points=[[0,0.5],[1,0.5]];portConstraint=eastwest;top=0;left=0;right=0;bottom=0;" parent="N9-u3PIbGsMnkZM41l7X-80" vertex="1">
          <mxGeometry y="30" width="320" height="30" as="geometry" />
        </mxCell>
        <mxCell id="N9-u3PIbGsMnkZM41l7X-82" value="" style="shape=partialRectangle;connectable=0;fillColor=none;top=0;left=0;bottom=0;right=0;editable=1;overflow=hidden;whiteSpace=wrap;html=1;" parent="N9-u3PIbGsMnkZM41l7X-81" vertex="1">
          <mxGeometry width="30" height="30" as="geometry">
            <mxRectangle width="30" height="30" as="alternateBounds" />
          </mxGeometry>
        </mxCell>
        <mxCell id="N9-u3PIbGsMnkZM41l7X-83" value="name" style="shape=partialRectangle;connectable=0;fillColor=none;top=0;left=0;bottom=0;right=0;align=left;spacingLeft=6;overflow=hidden;whiteSpace=wrap;html=1;" parent="N9-u3PIbGsMnkZM41l7X-81" vertex="1">
          <mxGeometry x="30" width="130" height="30" as="geometry">
            <mxRectangle width="130" height="30" as="alternateBounds" />
          </mxGeometry>
        </mxCell>
        <mxCell id="N9-u3PIbGsMnkZM41l7X-84" value="string" style="shape=partialRectangle;connectable=0;fillColor=none;top=0;left=0;bottom=0;right=0;align=left;spacingLeft=6;overflow=hidden;whiteSpace=wrap;html=1;" parent="N9-u3PIbGsMnkZM41l7X-81" vertex="1">
          <mxGeometry x="160" width="160" height="30" as="geometry">
            <mxRectangle width="160" height="30" as="alternateBounds" />
          </mxGeometry>
        </mxCell>
        <mxCell id="N9-u3PIbGsMnkZM41l7X-85" value="" style="shape=tableRow;horizontal=0;startSize=0;swimlaneHead=0;swimlaneBody=0;fillColor=none;collapsible=0;dropTarget=0;points=[[0,0.5],[1,0.5]];portConstraint=eastwest;top=0;left=0;right=0;bottom=0;" parent="N9-u3PIbGsMnkZM41l7X-80" vertex="1">
          <mxGeometry y="60" width="320" height="30" as="geometry" />
        </mxCell>
        <mxCell id="N9-u3PIbGsMnkZM41l7X-86" value="" style="shape=partialRectangle;connectable=0;fillColor=none;top=0;left=0;bottom=0;right=0;editable=1;overflow=hidden;whiteSpace=wrap;html=1;" parent="N9-u3PIbGsMnkZM41l7X-85" vertex="1">
          <mxGeometry width="30" height="30" as="geometry">
            <mxRectangle width="30" height="30" as="alternateBounds" />
          </mxGeometry>
        </mxCell>
        <mxCell id="N9-u3PIbGsMnkZM41l7X-87" value="price" style="shape=partialRectangle;connectable=0;fillColor=none;top=0;left=0;bottom=0;right=0;align=left;spacingLeft=6;overflow=hidden;whiteSpace=wrap;html=1;" parent="N9-u3PIbGsMnkZM41l7X-85" vertex="1">
          <mxGeometry x="30" width="130" height="30" as="geometry">
            <mxRectangle width="130" height="30" as="alternateBounds" />
          </mxGeometry>
        </mxCell>
        <mxCell id="N9-u3PIbGsMnkZM41l7X-88" value="integer" style="shape=partialRectangle;connectable=0;fillColor=none;top=0;left=0;bottom=0;right=0;align=left;spacingLeft=6;overflow=hidden;whiteSpace=wrap;html=1;" parent="N9-u3PIbGsMnkZM41l7X-85" vertex="1">
          <mxGeometry x="160" width="160" height="30" as="geometry">
            <mxRectangle width="160" height="30" as="alternateBounds" />
          </mxGeometry>
        </mxCell>
        <mxCell id="N9-u3PIbGsMnkZM41l7X-89" value="" style="shape=tableRow;horizontal=0;startSize=0;swimlaneHead=0;swimlaneBody=0;fillColor=none;collapsible=0;dropTarget=0;points=[[0,0.5],[1,0.5]];portConstraint=eastwest;top=0;left=0;right=0;bottom=0;" parent="N9-u3PIbGsMnkZM41l7X-80" vertex="1">
          <mxGeometry y="90" width="320" height="30" as="geometry" />
        </mxCell>
        <mxCell id="N9-u3PIbGsMnkZM41l7X-90" value="" style="shape=partialRectangle;connectable=0;fillColor=none;top=0;left=0;bottom=0;right=0;editable=1;overflow=hidden;whiteSpace=wrap;html=1;" parent="N9-u3PIbGsMnkZM41l7X-89" vertex="1">
          <mxGeometry width="30" height="30" as="geometry">
            <mxRectangle width="30" height="30" as="alternateBounds" />
          </mxGeometry>
        </mxCell>
        <mxCell id="N9-u3PIbGsMnkZM41l7X-91" value="weight" style="shape=partialRectangle;connectable=0;fillColor=none;top=0;left=0;bottom=0;right=0;align=left;spacingLeft=6;overflow=hidden;whiteSpace=wrap;html=1;" parent="N9-u3PIbGsMnkZM41l7X-89" vertex="1">
          <mxGeometry x="30" width="130" height="30" as="geometry">
            <mxRectangle width="130" height="30" as="alternateBounds" />
          </mxGeometry>
        </mxCell>
        <mxCell id="N9-u3PIbGsMnkZM41l7X-92" value="double" style="shape=partialRectangle;connectable=0;fillColor=none;top=0;left=0;bottom=0;right=0;align=left;spacingLeft=6;overflow=hidden;whiteSpace=wrap;html=1;" parent="N9-u3PIbGsMnkZM41l7X-89" vertex="1">
          <mxGeometry x="160" width="160" height="30" as="geometry">
            <mxRectangle width="160" height="30" as="alternateBounds" />
          </mxGeometry>
        </mxCell>
        <mxCell id="N9-u3PIbGsMnkZM41l7X-93" value="" style="shape=tableRow;horizontal=0;startSize=0;swimlaneHead=0;swimlaneBody=0;fillColor=none;collapsible=0;dropTarget=0;points=[[0,0.5],[1,0.5]];portConstraint=eastwest;top=0;left=0;right=0;bottom=0;" parent="N9-u3PIbGsMnkZM41l7X-80" vertex="1">
          <mxGeometry y="120" width="320" height="30" as="geometry" />
        </mxCell>
        <mxCell id="N9-u3PIbGsMnkZM41l7X-94" value="" style="shape=partialRectangle;connectable=0;fillColor=none;top=0;left=0;bottom=0;right=0;editable=1;overflow=hidden;whiteSpace=wrap;html=1;" parent="N9-u3PIbGsMnkZM41l7X-93" vertex="1">
          <mxGeometry width="30" height="30" as="geometry">
            <mxRectangle width="30" height="30" as="alternateBounds" />
          </mxGeometry>
        </mxCell>
        <mxCell id="N9-u3PIbGsMnkZM41l7X-95" value="composition" style="shape=partialRectangle;connectable=0;fillColor=none;top=0;left=0;bottom=0;right=0;align=left;spacingLeft=6;overflow=hidden;whiteSpace=wrap;html=1;" parent="N9-u3PIbGsMnkZM41l7X-93" vertex="1">
          <mxGeometry x="30" width="130" height="30" as="geometry">
            <mxRectangle width="130" height="30" as="alternateBounds" />
          </mxGeometry>
        </mxCell>
        <mxCell id="N9-u3PIbGsMnkZM41l7X-96" value="string" style="shape=partialRectangle;connectable=0;fillColor=none;top=0;left=0;bottom=0;right=0;align=left;spacingLeft=6;overflow=hidden;whiteSpace=wrap;html=1;" parent="N9-u3PIbGsMnkZM41l7X-93" vertex="1">
          <mxGeometry x="160" width="160" height="30" as="geometry">
            <mxRectangle width="160" height="30" as="alternateBounds" />
          </mxGeometry>
        </mxCell>
        <mxCell id="N9-u3PIbGsMnkZM41l7X-97" value="" style="shape=tableRow;horizontal=0;startSize=0;swimlaneHead=0;swimlaneBody=0;fillColor=none;collapsible=0;dropTarget=0;points=[[0,0.5],[1,0.5]];portConstraint=eastwest;top=0;left=0;right=0;bottom=0;" parent="N9-u3PIbGsMnkZM41l7X-80" vertex="1">
          <mxGeometry y="150" width="320" height="30" as="geometry" />
        </mxCell>
        <mxCell id="N9-u3PIbGsMnkZM41l7X-98" value="" style="shape=partialRectangle;connectable=0;fillColor=none;top=0;left=0;bottom=0;right=0;editable=1;overflow=hidden;whiteSpace=wrap;html=1;" parent="N9-u3PIbGsMnkZM41l7X-97" vertex="1">
          <mxGeometry width="30" height="30" as="geometry">
            <mxRectangle width="30" height="30" as="alternateBounds" />
          </mxGeometry>
        </mxCell>
        <mxCell id="N9-u3PIbGsMnkZM41l7X-99" value="description" style="shape=partialRectangle;connectable=0;fillColor=none;top=0;left=0;bottom=0;right=0;align=left;spacingLeft=6;overflow=hidden;whiteSpace=wrap;html=1;" parent="N9-u3PIbGsMnkZM41l7X-97" vertex="1">
          <mxGeometry x="30" width="130" height="30" as="geometry">
            <mxRectangle width="130" height="30" as="alternateBounds" />
          </mxGeometry>
        </mxCell>
        <mxCell id="N9-u3PIbGsMnkZM41l7X-100" value="string" style="shape=partialRectangle;connectable=0;fillColor=none;top=0;left=0;bottom=0;right=0;align=left;spacingLeft=6;overflow=hidden;whiteSpace=wrap;html=1;" parent="N9-u3PIbGsMnkZM41l7X-97" vertex="1">
          <mxGeometry x="160" width="160" height="30" as="geometry">
            <mxRectangle width="160" height="30" as="alternateBounds" />
          </mxGeometry>
        </mxCell>
        <mxCell id="N9-u3PIbGsMnkZM41l7X-101" value="" style="shape=tableRow;horizontal=0;startSize=0;swimlaneHead=0;swimlaneBody=0;fillColor=none;collapsible=0;dropTarget=0;points=[[0,0.5],[1,0.5]];portConstraint=eastwest;top=0;left=0;right=0;bottom=0;" parent="N9-u3PIbGsMnkZM41l7X-80" vertex="1">
          <mxGeometry y="180" width="320" height="30" as="geometry" />
        </mxCell>
        <mxCell id="N9-u3PIbGsMnkZM41l7X-102" value="" style="shape=partialRectangle;connectable=0;fillColor=none;top=0;left=0;bottom=0;right=0;editable=1;overflow=hidden;whiteSpace=wrap;html=1;" parent="N9-u3PIbGsMnkZM41l7X-101" vertex="1">
          <mxGeometry width="30" height="30" as="geometry">
            <mxRectangle width="30" height="30" as="alternateBounds" />
          </mxGeometry>
        </mxCell>
        <mxCell id="N9-u3PIbGsMnkZM41l7X-103" value="sale" style="shape=partialRectangle;connectable=0;fillColor=none;top=0;left=0;bottom=0;right=0;align=left;spacingLeft=6;overflow=hidden;whiteSpace=wrap;html=1;" parent="N9-u3PIbGsMnkZM41l7X-101" vertex="1">
          <mxGeometry x="30" width="130" height="30" as="geometry">
            <mxRectangle width="130" height="30" as="alternateBounds" />
          </mxGeometry>
        </mxCell>
        <mxCell id="N9-u3PIbGsMnkZM41l7X-104" value="integer" style="shape=partialRectangle;connectable=0;fillColor=none;top=0;left=0;bottom=0;right=0;align=left;spacingLeft=6;overflow=hidden;whiteSpace=wrap;html=1;" parent="N9-u3PIbGsMnkZM41l7X-101" vertex="1">
          <mxGeometry x="160" width="160" height="30" as="geometry">
            <mxRectangle width="160" height="30" as="alternateBounds" />
          </mxGeometry>
        </mxCell>
        <mxCell id="N9-u3PIbGsMnkZM41l7X-105" style="shape=tableRow;horizontal=0;startSize=0;swimlaneHead=0;swimlaneBody=0;fillColor=none;collapsible=0;dropTarget=0;points=[[0,0.5],[1,0.5]];portConstraint=eastwest;top=0;left=0;right=0;bottom=0;" parent="N9-u3PIbGsMnkZM41l7X-80" vertex="1">
          <mxGeometry y="210" width="320" height="30" as="geometry" />
        </mxCell>
        <mxCell id="N9-u3PIbGsMnkZM41l7X-106" style="shape=partialRectangle;connectable=0;fillColor=none;top=0;left=0;bottom=0;right=0;editable=1;overflow=hidden;whiteSpace=wrap;html=1;" parent="N9-u3PIbGsMnkZM41l7X-105" vertex="1">
          <mxGeometry width="30" height="30" as="geometry">
            <mxRectangle width="30" height="30" as="alternateBounds" />
          </mxGeometry>
        </mxCell>
        <mxCell id="N9-u3PIbGsMnkZM41l7X-107" value="category" style="shape=partialRectangle;connectable=0;fillColor=none;top=0;left=0;bottom=0;right=0;align=left;spacingLeft=6;overflow=hidden;whiteSpace=wrap;html=1;" parent="N9-u3PIbGsMnkZM41l7X-105" vertex="1">
          <mxGeometry x="30" width="130" height="30" as="geometry">
            <mxRectangle width="130" height="30" as="alternateBounds" />
          </mxGeometry>
        </mxCell>
        <mxCell id="N9-u3PIbGsMnkZM41l7X-108" value="string" style="shape=partialRectangle;connectable=0;fillColor=none;top=0;left=0;bottom=0;right=0;align=left;spacingLeft=6;overflow=hidden;whiteSpace=wrap;html=1;" parent="N9-u3PIbGsMnkZM41l7X-105" vertex="1">
          <mxGeometry x="160" width="160" height="30" as="geometry">
            <mxRectangle width="160" height="30" as="alternateBounds" />
          </mxGeometry>
        </mxCell>
        <mxCell id="N9-u3PIbGsMnkZM41l7X-109" value="order" style="shape=table;startSize=30;container=1;collapsible=1;childLayout=tableLayout;fixedRows=1;rowLines=0;fontStyle=1;align=center;resizeLast=1;html=1;rounded=1;" parent="1" vertex="1">
          <mxGeometry x="1520" y="760" width="319.9999999999998" height="210" as="geometry" />
        </mxCell>
        <mxCell id="N9-u3PIbGsMnkZM41l7X-110" value="" style="shape=tableRow;horizontal=0;startSize=0;swimlaneHead=0;swimlaneBody=0;fillColor=none;collapsible=0;dropTarget=0;points=[[0,0.5],[1,0.5]];portConstraint=eastwest;top=0;left=0;right=0;bottom=0;" parent="N9-u3PIbGsMnkZM41l7X-109" vertex="1">
          <mxGeometry y="30" width="319.9999999999998" height="30" as="geometry" />
        </mxCell>
        <mxCell id="N9-u3PIbGsMnkZM41l7X-111" value="" style="shape=partialRectangle;connectable=0;fillColor=none;top=0;left=0;bottom=0;right=0;editable=1;overflow=hidden;whiteSpace=wrap;html=1;fontStyle=1" parent="N9-u3PIbGsMnkZM41l7X-110" vertex="1">
          <mxGeometry width="30" height="30" as="geometry">
            <mxRectangle width="30" height="30" as="alternateBounds" />
          </mxGeometry>
        </mxCell>
        <mxCell id="N9-u3PIbGsMnkZM41l7X-112" value="customer_id" style="shape=partialRectangle;connectable=0;fillColor=none;top=0;left=0;bottom=0;right=0;align=left;spacingLeft=6;overflow=hidden;whiteSpace=wrap;html=1;fontStyle=0" parent="N9-u3PIbGsMnkZM41l7X-110" vertex="1">
          <mxGeometry x="30" width="130" height="30" as="geometry">
            <mxRectangle width="130" height="30" as="alternateBounds" />
          </mxGeometry>
        </mxCell>
        <mxCell id="N9-u3PIbGsMnkZM41l7X-113" value="int" style="shape=partialRectangle;connectable=0;fillColor=none;top=0;left=0;bottom=0;right=0;align=left;spacingLeft=6;overflow=hidden;whiteSpace=wrap;html=1;fontStyle=0" parent="N9-u3PIbGsMnkZM41l7X-110" vertex="1">
          <mxGeometry x="160" width="159.99999999999977" height="30" as="geometry">
            <mxRectangle width="159.99999999999977" height="30" as="alternateBounds" />
          </mxGeometry>
        </mxCell>
        <mxCell id="N9-u3PIbGsMnkZM41l7X-114" value="" style="shape=tableRow;horizontal=0;startSize=0;swimlaneHead=0;swimlaneBody=0;fillColor=none;collapsible=0;dropTarget=0;points=[[0,0.5],[1,0.5]];portConstraint=eastwest;top=0;left=0;right=0;bottom=0;" parent="N9-u3PIbGsMnkZM41l7X-109" vertex="1">
          <mxGeometry y="60" width="319.9999999999998" height="30" as="geometry" />
        </mxCell>
        <mxCell id="N9-u3PIbGsMnkZM41l7X-115" value="" style="shape=partialRectangle;connectable=0;fillColor=none;top=0;left=0;bottom=0;right=0;editable=1;overflow=hidden;whiteSpace=wrap;html=1;fontStyle=1" parent="N9-u3PIbGsMnkZM41l7X-114" vertex="1">
          <mxGeometry width="30" height="30" as="geometry">
            <mxRectangle width="30" height="30" as="alternateBounds" />
          </mxGeometry>
        </mxCell>
        <mxCell id="N9-u3PIbGsMnkZM41l7X-116" value="restaurant_id" style="shape=partialRectangle;connectable=0;fillColor=none;top=0;left=0;bottom=0;right=0;align=left;spacingLeft=6;overflow=hidden;whiteSpace=wrap;html=1;fontStyle=0" parent="N9-u3PIbGsMnkZM41l7X-114" vertex="1">
          <mxGeometry x="30" width="130" height="30" as="geometry">
            <mxRectangle width="130" height="30" as="alternateBounds" />
          </mxGeometry>
        </mxCell>
        <mxCell id="N9-u3PIbGsMnkZM41l7X-117" value="int" style="shape=partialRectangle;connectable=0;fillColor=none;top=0;left=0;bottom=0;right=0;align=left;spacingLeft=6;overflow=hidden;whiteSpace=wrap;html=1;fontStyle=0" parent="N9-u3PIbGsMnkZM41l7X-114" vertex="1">
          <mxGeometry x="160" width="159.99999999999977" height="30" as="geometry">
            <mxRectangle width="159.99999999999977" height="30" as="alternateBounds" />
          </mxGeometry>
        </mxCell>
        <mxCell id="N9-u3PIbGsMnkZM41l7X-118" value="" style="shape=tableRow;horizontal=0;startSize=0;swimlaneHead=0;swimlaneBody=0;fillColor=none;collapsible=0;dropTarget=0;points=[[0,0.5],[1,0.5]];portConstraint=eastwest;top=0;left=0;right=0;bottom=0;" parent="N9-u3PIbGsMnkZM41l7X-109" vertex="1">
          <mxGeometry y="90" width="319.9999999999998" height="30" as="geometry" />
        </mxCell>
        <mxCell id="N9-u3PIbGsMnkZM41l7X-119" value="" style="shape=partialRectangle;connectable=0;fillColor=none;top=0;left=0;bottom=0;right=0;editable=1;overflow=hidden;whiteSpace=wrap;html=1;" parent="N9-u3PIbGsMnkZM41l7X-118" vertex="1">
          <mxGeometry width="30" height="30" as="geometry">
            <mxRectangle width="30" height="30" as="alternateBounds" />
          </mxGeometry>
        </mxCell>
        <mxCell id="N9-u3PIbGsMnkZM41l7X-120" value="date" style="shape=partialRectangle;connectable=0;fillColor=none;top=0;left=0;bottom=0;right=0;align=left;spacingLeft=6;overflow=hidden;whiteSpace=wrap;html=1;" parent="N9-u3PIbGsMnkZM41l7X-118" vertex="1">
          <mxGeometry x="30" width="130" height="30" as="geometry">
            <mxRectangle width="130" height="30" as="alternateBounds" />
          </mxGeometry>
        </mxCell>
        <mxCell id="N9-u3PIbGsMnkZM41l7X-121" value="date" style="shape=partialRectangle;connectable=0;fillColor=none;top=0;left=0;bottom=0;right=0;align=left;spacingLeft=6;overflow=hidden;whiteSpace=wrap;html=1;" parent="N9-u3PIbGsMnkZM41l7X-118" vertex="1">
          <mxGeometry x="160" width="159.99999999999977" height="30" as="geometry">
            <mxRectangle width="159.99999999999977" height="30" as="alternateBounds" />
          </mxGeometry>
        </mxCell>
        <mxCell id="N9-u3PIbGsMnkZM41l7X-122" value="" style="shape=tableRow;horizontal=0;startSize=0;swimlaneHead=0;swimlaneBody=0;fillColor=none;collapsible=0;dropTarget=0;points=[[0,0.5],[1,0.5]];portConstraint=eastwest;top=0;left=0;right=0;bottom=0;" parent="N9-u3PIbGsMnkZM41l7X-109" vertex="1">
          <mxGeometry y="120" width="319.9999999999998" height="30" as="geometry" />
        </mxCell>
        <mxCell id="N9-u3PIbGsMnkZM41l7X-123" value="" style="shape=partialRectangle;connectable=0;fillColor=none;top=0;left=0;bottom=0;right=0;editable=1;overflow=hidden;whiteSpace=wrap;html=1;" parent="N9-u3PIbGsMnkZM41l7X-122" vertex="1">
          <mxGeometry width="30" height="30" as="geometry">
            <mxRectangle width="30" height="30" as="alternateBounds" />
          </mxGeometry>
        </mxCell>
        <mxCell id="N9-u3PIbGsMnkZM41l7X-124" value="state" style="shape=partialRectangle;connectable=0;fillColor=none;top=0;left=0;bottom=0;right=0;align=left;spacingLeft=6;overflow=hidden;whiteSpace=wrap;html=1;" parent="N9-u3PIbGsMnkZM41l7X-122" vertex="1">
          <mxGeometry x="30" width="130" height="30" as="geometry">
            <mxRectangle width="130" height="30" as="alternateBounds" />
          </mxGeometry>
        </mxCell>
        <mxCell id="N9-u3PIbGsMnkZM41l7X-125" value="string" style="shape=partialRectangle;connectable=0;fillColor=none;top=0;left=0;bottom=0;right=0;align=left;spacingLeft=6;overflow=hidden;whiteSpace=wrap;html=1;" parent="N9-u3PIbGsMnkZM41l7X-122" vertex="1">
          <mxGeometry x="160" width="159.99999999999977" height="30" as="geometry">
            <mxRectangle width="159.99999999999977" height="30" as="alternateBounds" />
          </mxGeometry>
        </mxCell>
        <mxCell id="N9-u3PIbGsMnkZM41l7X-126" value="" style="shape=tableRow;horizontal=0;startSize=0;swimlaneHead=0;swimlaneBody=0;fillColor=none;collapsible=0;dropTarget=0;points=[[0,0.5],[1,0.5]];portConstraint=eastwest;top=0;left=0;right=0;bottom=0;" parent="N9-u3PIbGsMnkZM41l7X-109" vertex="1">
          <mxGeometry y="150" width="319.9999999999998" height="30" as="geometry" />
        </mxCell>
        <mxCell id="N9-u3PIbGsMnkZM41l7X-127" value="" style="shape=partialRectangle;connectable=0;fillColor=none;top=0;left=0;bottom=0;right=0;editable=1;overflow=hidden;whiteSpace=wrap;html=1;" parent="N9-u3PIbGsMnkZM41l7X-126" vertex="1">
          <mxGeometry width="30" height="30" as="geometry">
            <mxRectangle width="30" height="30" as="alternateBounds" />
          </mxGeometry>
        </mxCell>
        <mxCell id="N9-u3PIbGsMnkZM41l7X-128" value="comment" style="shape=partialRectangle;connectable=0;fillColor=none;top=0;left=0;bottom=0;right=0;align=left;spacingLeft=6;overflow=hidden;whiteSpace=wrap;html=1;" parent="N9-u3PIbGsMnkZM41l7X-126" vertex="1">
          <mxGeometry x="30" width="130" height="30" as="geometry">
            <mxRectangle width="130" height="30" as="alternateBounds" />
          </mxGeometry>
        </mxCell>
        <mxCell id="N9-u3PIbGsMnkZM41l7X-129" value="string" style="shape=partialRectangle;connectable=0;fillColor=none;top=0;left=0;bottom=0;right=0;align=left;spacingLeft=6;overflow=hidden;whiteSpace=wrap;html=1;" parent="N9-u3PIbGsMnkZM41l7X-126" vertex="1">
          <mxGeometry x="160" width="159.99999999999977" height="30" as="geometry">
            <mxRectangle width="159.99999999999977" height="30" as="alternateBounds" />
          </mxGeometry>
        </mxCell>
        <mxCell id="N9-u3PIbGsMnkZM41l7X-138" style="shape=tableRow;horizontal=0;startSize=0;swimlaneHead=0;swimlaneBody=0;fillColor=none;collapsible=0;dropTarget=0;points=[[0,0.5],[1,0.5]];portConstraint=eastwest;top=0;left=0;right=0;bottom=0;" parent="N9-u3PIbGsMnkZM41l7X-109" vertex="1">
          <mxGeometry y="180" width="319.9999999999998" height="30" as="geometry" />
        </mxCell>
        <mxCell id="N9-u3PIbGsMnkZM41l7X-139" style="shape=partialRectangle;connectable=0;fillColor=none;top=0;left=0;bottom=0;right=0;editable=1;overflow=hidden;whiteSpace=wrap;html=1;" parent="N9-u3PIbGsMnkZM41l7X-138" vertex="1">
          <mxGeometry width="30" height="30" as="geometry">
            <mxRectangle width="30" height="30" as="alternateBounds" />
          </mxGeometry>
        </mxCell>
        <mxCell id="N9-u3PIbGsMnkZM41l7X-140" value="products" style="shape=partialRectangle;connectable=0;fillColor=none;top=0;left=0;bottom=0;right=0;align=left;spacingLeft=6;overflow=hidden;whiteSpace=wrap;html=1;" parent="N9-u3PIbGsMnkZM41l7X-138" vertex="1">
          <mxGeometry x="30" width="130" height="30" as="geometry">
            <mxRectangle width="130" height="30" as="alternateBounds" />
          </mxGeometry>
        </mxCell>
        <mxCell id="N9-u3PIbGsMnkZM41l7X-141" value="[products]" style="shape=partialRectangle;connectable=0;fillColor=none;top=0;left=0;bottom=0;right=0;align=left;spacingLeft=6;overflow=hidden;whiteSpace=wrap;html=1;" parent="N9-u3PIbGsMnkZM41l7X-138" vertex="1">
          <mxGeometry x="160" width="159.99999999999977" height="30" as="geometry">
            <mxRectangle width="159.99999999999977" height="30" as="alternateBounds" />
          </mxGeometry>
        </mxCell>
      </root>
    </mxGraphModel>
  </diagram>
</mxfile>
